<svg fill="none" height="24" viewBox="0 0 24 24" width="24" xmlns="http://www.w3.org/2000/svg"><path d="m21 15v-3c0-4.97056-4.0294-9-9-9-4.97056 0-9 4.02944-9 9v3" stroke="#ea2b2b" stroke-linecap="round" stroke-width="2"/><g fill="#ff4b4b"><path d="m3 15h3c.55228 0 1 .4477 1 1v3c0 1.1046-.89543 2-2 2s-2-.8954-2-2z"/><path d="m3 15v-1h-1v1zm0 1h3v-2h-3zm3 0v3h2v-3zm-2 3v-4h-2v4zm1 1c-.55228 0-1-.4477-1-1h-2c0 1.6569 1.34315 3 3 3zm1-1c0 .5523-.44772 1-1 1v2c1.65685 0 3-1.3431 3-3zm0-3h2c0-1.1046-.89543-2-2-2z"/><path d="m17 16c0-.5523.4477-1 1-1h3v4c0 1.1046-.8954 2-2 2s-2-.8954-2-2z"/><path d="m21 15h1v-1h-1zm-3 1h3v-2h-3zm2-1v4h2v-4zm-2 4v-3h-2v3zm1 1c-.5523 0-1-.4477-1-1h-2c0 1.6569 1.3431 3 3 3zm1-1c0 .5523-.4477 1-1 1v2c1.6569 0 3-1.3431 3-3zm-2-5c-1.1046 0-2 .8954-2 2h2z"/></g></svg>