<?xml version="1.0" encoding="utf-8"?>
<svg viewBox="24 24 200 200" xmlns="http://www.w3.org/2000/svg">
  <path d="M 199.607 178.738 C 199.27 191.183 188.863 200.864 176.638 200.119 C 158.522 200.222 140.408 200.119 122.294 200.119 C 119.063 200.119 117.036 196.563 118.65 193.705 C 119.407 192.388 120.796 191.568 122.294 191.568 C 140.804 191.568 159.314 191.841 177.824 191.568 C 187.138 191.431 191.193 184.315 191.193 175.848 L 191.193 69.258 C 191.328 63.75 188.08 58.73 183.049 56.669 C 180.146 55.864 177.126 55.59 174.122 55.855 L 122.294 55.855 C 119.063 55.855 117.036 52.299 118.65 49.441 C 119.407 48.125 120.796 47.303 122.294 47.303 C 141.005 47.303 159.861 46.577 178.555 47.303 C 190.612 47.611 200.078 57.891 199.59 70.139 L 199.607 178.738 Z" style="stroke-miterlimit: 9.06; stroke: rgb(49, 49, 49); stroke-width: 10px;"/>
  <path d="M 52.193 119.567 C 51.487 120.269 51.067 121.226 51.033 122.227 C 51.033 122.355 51.033 122.467 50.982 122.595 C 50.932 122.723 50.982 122.826 51.033 122.946 C 51.067 123.955 51.487 124.913 52.193 125.615 L 83.063 156.993 C 85.394 159.286 89.29 158.148 90.073 154.958 C 90.426 153.521 90.022 152.007 89.012 150.947 L 65.328 126.864 L 155.707 126.864 C 158.947 126.864 160.974 123.306 159.35 120.448 C 158.601 119.131 157.214 118.311 155.707 118.311 L 65.328 118.311 L 89.012 94.226 C 91.267 91.858 90.148 87.906 87.009 87.111 C 85.596 86.752 84.107 87.154 83.063 88.18 L 52.193 119.567 Z" style="paint-order: fill; stroke-miterlimit: 6.24; stroke-width: 11px; stroke: rgb(123, 122, 122);"/>
</svg>