<?xml version="1.0" encoding="utf-8"?>
<!-- Generator: Adobe Illustrator 24.1.1, SVG Export Plug-In . SVG Version: 6.00 Build 0)  -->
<svg version="1.1" id="Layer_1" xmlns="http://www.w3.org/2000/svg" xmlns:xlink="http://www.w3.org/1999/xlink" x="0px" y="0px"
	 viewBox="0 0 512 512" style="enable-background:new 0 0 512 512;" xml:space="preserve" fill="#04aa6d">
<g>
	<path d="M80,199.5c43.4,24.9,102,37.3,176,37.3s132.6-12.4,176-37.3l-28.8,259.2c-0.7,5-6.9,11.4-18.7,19.2s-29.5,15.5-53.3,22.9
		c-23.8,7.5-48.9,11.2-75.2,11.2s-51.2-3.7-74.7-11.2c-23.5-7.5-41.2-15.1-53.3-22.9s-18.5-14.2-19.2-19.2L80,199.5 M340.3,39.5
		c33.4,6.4,61.5,16.2,84.3,29.3c22.8,13.2,34.1,25.8,34.1,37.9v5.3c0,20.6-19.9,38.2-59.7,52.8s-87.5,21.9-142.9,21.9
		s-103.1-7.3-142.9-21.9S53.3,132.6,53.3,112v-5.3c0-12.1,11.4-24.7,34.1-37.9s50.8-22.9,84.3-29.3l22.4-25.6
		C202,4.6,214.4,0,231.5,0h49.1c18.5,0,30.9,4.6,37.3,13.9L340.3,39.5 M311.5,99.2h44.8c-32.7-39.1-51.2-61.5-55.5-67.2
		c-5-5.7-10.7-8.5-17.1-8.5h-54.4c-7.8,0-13.5,2.8-17.1,8.5l-56.5,67.2h44.8L234.7,64h43.7L311.5,99.2"/>
</g>
</svg>
